<svg xmlns="http://www.w3.org/2000/svg" xmlns:svg="http://www.w3.org/2000/svg" id="svg2" width="206.1" height="227.363" version="1.1" viewBox="0 0 206.1 227.363" xml:space="preserve"><metadata id="metadata8"/><defs id="defs6"><clipPath id="clipPath16" clipPathUnits="userSpaceOnUse"><path id="path18" d="m 0,841.89 595.28,0 L 595.28,0 0,0 0,841.89 Z"/></clipPath></defs><g id="g10" transform="matrix(1.25,0,0,-1.25,0,227.36257)"><g id="g12"><g id="g14" clip-path="url(#clipPath16)" transform="translate(-204.36036,-310.33127)"><g id="g20" transform="translate(230.4962,463.2526)"><path style="fill:#f30;fill-opacity:1;fill-rule:nonzero;stroke:none" id="path22" d="m 0,0 c 0,0 -12.805,-7.55 -17.065,-10.079 -2.906,-1.724 -4.233,-4.335 -4.239,-6.653 l -0.228,-87.501 c -0.006,-2.318 1.052,-5.162 4.203,-6.965 4.297,-2.458 17.013,-10.135 17.013,-10.135 L 0,0 Z"/></g><g id="g24" transform="translate(291.0049,441.0746)"><path style="fill:#f30;fill-opacity:1;fill-rule:nonzero;stroke:none" id="path26" d="m 0,0 c 0,0 12.765,-7.616 17.013,-10.167 2.896,-1.74 4.21,-4.358 4.204,-6.675 l -0.245,-93.876 c -0.006,-2.318 -1.079,-5.157 -4.239,-6.943 -4.31,-2.436 -17.066,-10.046 -17.066,-10.046 L 0,0 Z"/></g><g id="g28" transform="translate(318.1966,408.8423)"><path style="fill:#f30;fill-opacity:1;fill-rule:nonzero;stroke:none" id="path30" d="m 0,0 c 0,0 12.765,-7.616 17.013,-10.167 2.896,-1.74 4.21,-4.358 4.204,-6.675 l -0.122,-46.649 c -0.006,-2.318 -1.079,-5.156 -4.239,-6.942 C 12.546,-72.869 -0.21,-80.479 -0.21,-80.479 L 0,0 Z"/></g><g id="g32" transform="translate(345.6133,462.9527)"><path style="fill:#f30;fill-opacity:1;fill-rule:nonzero;stroke:none" id="path34" d="m 0,0 c 0,0 12.765,-7.616 17.013,-10.167 2.896,-1.74 4.21,-4.358 4.204,-6.675 l -0.222,-84.894 c -0.006,-2.318 -1.078,-5.157 -4.239,-6.943 -4.31,-2.436 -17.065,-10.046 -17.065,-10.046 L 0,0 Z"/></g><g id="g36" transform="translate(257.7478,454.018)"><path style="fill:#f30;fill-opacity:1;fill-rule:nonzero;stroke:none" id="path38" d="m 0,0 c 0,0 -12.804,-7.55 -17.065,-10.079 -2.906,-1.724 -4.233,-4.335 -4.239,-6.653 l -0.242,-92.875 c -0.006,-2.318 1.052,-5.162 4.203,-6.965 4.297,-2.458 17.013,-10.135 17.013,-10.135 L 0,0 Z"/></g><g id="g40" transform="translate(285.1175,490.0743)"><path style="fill:#f30;fill-opacity:1;fill-rule:nonzero;stroke:none" id="path42" d="m 0,0 c 0,0 -12.805,-7.55 -17.065,-10.079 -2.906,-1.724 -4.233,-4.335 -4.239,-6.653 l -0.373,-142.91 c -0.006,-2.318 1.053,-5.162 4.204,-6.965 4.297,-2.458 17.012,-10.135 17.012,-10.135 L 0,0 Z"/></g></g></g></g></svg>